<svg id="eGeRnNILjbt1" xmlns="http://www.w3.org/2000/svg" xmlns:xlink="http://www.w3.org/1999/xlink" viewBox="0 0 1080 1080" shape-rendering="geometricPrecision" text-rendering="geometricPrecision" style="background-color:transparent"><defs><filter id="eGeRnNILjbt7-filter" x="-400%" width="600%" y="-400%" height="600%"><feGaussianBlur id="eGeRnNILjbt7-filter-drop-shadow-0-blur" in="SourceAlpha" stdDeviation="3,3"/><feOffset id="eGeRnNILjbt7-filter-drop-shadow-0-offset" dx="0" dy="0" result="tmp"/><feFlood id="eGeRnNILjbt7-filter-drop-shadow-0-flood" flood-color="#8e26af"/><feComposite id="eGeRnNILjbt7-filter-drop-shadow-0-composite" operator="in" in2="tmp"/><feMerge id="eGeRnNILjbt7-filter-drop-shadow-0-merge"><feMergeNode id="eGeRnNILjbt7-filter-drop-shadow-0-merge-node-1"/><feMergeNode id="eGeRnNILjbt7-filter-drop-shadow-0-merge-node-2" in="SourceGraphic"/></feMerge></filter><linearGradient id="eGeRnNILjbt7-fill" x1="2.62" y1="2.59" x2="68.83" y2="68.8" spreadMethod="pad" gradientUnits="userSpaceOnUse" gradientTransform="translate(0 0)"><stop id="eGeRnNILjbt7-fill-0" offset="0%" stop-color="#951eaf"/><stop id="eGeRnNILjbt7-fill-1" offset="100%" stop-color="#6562af"/></linearGradient><filter id="eGeRnNILjbt11-filter" x="-400%" width="600%" y="-400%" height="600%"><feGaussianBlur id="eGeRnNILjbt11-filter-drop-shadow-0-blur" in="SourceAlpha" stdDeviation="3,3"/><feOffset id="eGeRnNILjbt11-filter-drop-shadow-0-offset" dx="3" dy="3" result="tmp"/><feFlood id="eGeRnNILjbt11-filter-drop-shadow-0-flood" flood-color="rgba(0,0,0,0.3)"/><feComposite id="eGeRnNILjbt11-filter-drop-shadow-0-composite" operator="in" in2="tmp"/><feMerge id="eGeRnNILjbt11-filter-drop-shadow-0-merge"><feMergeNode id="eGeRnNILjbt11-filter-drop-shadow-0-merge-node-1"/><feMergeNode id="eGeRnNILjbt11-filter-drop-shadow-0-merge-node-2" in="SourceGraphic"/></feMerge></filter><filter id="eGeRnNILjbt33-filter" x="-400%" width="600%" y="-400%" height="600%"><feGaussianBlur id="eGeRnNILjbt33-filter-drop-shadow-0-blur" in="SourceAlpha" stdDeviation="3,3"/><feOffset id="eGeRnNILjbt33-filter-drop-shadow-0-offset" dx="0" dy="0" result="tmp"/><feFlood id="eGeRnNILjbt33-filter-drop-shadow-0-flood" flood-color="#9222af"/><feComposite id="eGeRnNILjbt33-filter-drop-shadow-0-composite" operator="in" in2="tmp"/><feMerge id="eGeRnNILjbt33-filter-drop-shadow-0-merge"><feMergeNode id="eGeRnNILjbt33-filter-drop-shadow-0-merge-node-1"/><feMergeNode id="eGeRnNILjbt33-filter-drop-shadow-0-merge-node-2" in="SourceGraphic"/></feMerge></filter><linearGradient id="eGeRnNILjbt33-fill" x1="2.58" y1="2.6" x2="82.24" y2="82.26" spreadMethod="pad" gradientUnits="userSpaceOnUse" gradientTransform="translate(0 0)"><stop id="eGeRnNILjbt33-fill-0" offset="0%" stop-color="#951eaf"/><stop id="eGeRnNILjbt33-fill-1" offset="100%" stop-color="#6562af"/></linearGradient><filter id="eGeRnNILjbt36-filter" x="-400%" width="600%" y="-400%" height="600%"><feGaussianBlur id="eGeRnNILjbt36-filter-drop-shadow-0-blur" in="SourceAlpha" stdDeviation="3,3"/><feOffset id="eGeRnNILjbt36-filter-drop-shadow-0-offset" dx="0" dy="0" result="tmp"/><feFlood id="eGeRnNILjbt36-filter-drop-shadow-0-flood" flood-color="#9222af"/><feComposite id="eGeRnNILjbt36-filter-drop-shadow-0-composite" operator="in" in2="tmp"/><feMerge id="eGeRnNILjbt36-filter-drop-shadow-0-merge"><feMergeNode id="eGeRnNILjbt36-filter-drop-shadow-0-merge-node-1"/><feMergeNode id="eGeRnNILjbt36-filter-drop-shadow-0-merge-node-2" in="SourceGraphic"/></feMerge></filter><linearGradient id="eGeRnNILjbt36-fill" x1="10.86" y1="-5.62" x2="96.03" y2="79.55" spreadMethod="pad" gradientUnits="userSpaceOnUse" gradientTransform="translate(0 0)"><stop id="eGeRnNILjbt36-fill-0" offset="0%" stop-color="#951eaf"/><stop id="eGeRnNILjbt36-fill-1" offset="100%" stop-color="#6562af"/></linearGradient><filter id="eGeRnNILjbt41-filter" x="-400%" width="600%" y="-400%" height="600%"><feGaussianBlur id="eGeRnNILjbt41-filter-drop-shadow-0-blur" in="SourceAlpha" stdDeviation="3,3"/><feOffset id="eGeRnNILjbt41-filter-drop-shadow-0-offset" dx="0" dy="0" result="tmp"/><feFlood id="eGeRnNILjbt41-filter-drop-shadow-0-flood" flood-color="#9222af"/><feComposite id="eGeRnNILjbt41-filter-drop-shadow-0-composite" operator="in" in2="tmp"/><feMerge id="eGeRnNILjbt41-filter-drop-shadow-0-merge"><feMergeNode id="eGeRnNILjbt41-filter-drop-shadow-0-merge-node-1"/><feMergeNode id="eGeRnNILjbt41-filter-drop-shadow-0-merge-node-2" in="SourceGraphic"/></feMerge></filter><linearGradient id="eGeRnNILjbt41-fill" x1="2.24" y1="2.23" x2="71.95" y2="71.94" spreadMethod="pad" gradientUnits="userSpaceOnUse" gradientTransform="translate(0 0)"><stop id="eGeRnNILjbt41-fill-0" offset="0%" stop-color="#951eaf"/><stop id="eGeRnNILjbt41-fill-1" offset="100%" stop-color="#6562af"/></linearGradient><filter id="eGeRnNILjbt53-filter" x="-400%" width="600%" y="-400%" height="600%"><feGaussianBlur id="eGeRnNILjbt53-filter-drop-shadow-0-blur" in="SourceAlpha" stdDeviation="3,3"/><feOffset id="eGeRnNILjbt53-filter-drop-shadow-0-offset" dx="0" dy="0" result="tmp"/><feFlood id="eGeRnNILjbt53-filter-drop-shadow-0-flood" flood-color="#9322af"/><feComposite id="eGeRnNILjbt53-filter-drop-shadow-0-composite" operator="in" in2="tmp"/><feMerge id="eGeRnNILjbt53-filter-drop-shadow-0-merge"><feMergeNode id="eGeRnNILjbt53-filter-drop-shadow-0-merge-node-1"/><feMergeNode id="eGeRnNILjbt53-filter-drop-shadow-0-merge-node-2" in="SourceGraphic"/></feMerge></filter><linearGradient id="eGeRnNILjbt53-fill" x1="2.58" y1="2.6" x2="115.29" y2="115.3" spreadMethod="pad" gradientUnits="userSpaceOnUse" gradientTransform="translate(0 0)"><stop id="eGeRnNILjbt53-fill-0" offset="0%" stop-color="#951eaf"/><stop id="eGeRnNILjbt53-fill-1" offset="100%" stop-color="#6562af"/></linearGradient></defs><g><path id="eGeRnNILjbt3" d="M894.7,244.9c.003868-1.949021-.197237-3.893045-.6-5.8l9.6-5.6-9-15.6-9.6,5.5c-2.971823-2.628172-6.440072-4.634316-10.2-5.9v-11h-18v11c-1.694661.588289-3.33431,1.324458-4.9,2.2l-.5.3-.6.3c-1.486571.910587-2.891785,1.947769-4.2,3.1l-9.6-5.5-9,15.6l9.6,5.6c-.396377,1.705001-.597669,3.449532-.6,5.2v1.3c.002331,1.750468.203623,3.494999.6,5.2l-9.6,5.6l9,15.6l9.6-5.5c2.980463,2.592406,6.448126,4.564214,10.2,5.8v11.1h18v-11.1c1.84548-.613106,3.621802-1.417479,5.3-2.4c1.73498-.969311,3.346634-2.144475,4.8-3.5l9.7,5.6l9-15.6-9.6-5.6c.402492-1.94078.603558-3.917926.6-5.9Zm-17,12.7l-.2.2c-.286975.319946-.624863.590256-1,.8l-.4.4-.9.5-.6.4-.7.4-.9.5-.6.2-1.1.4h-.3c-1.649362.524735-3.369187.794511-5.1.8-9.609755,0-17.4-7.790245-17.4-17.4.016375-2.294399.457127-4.565966,1.3-6.7.073125-.08202.109288-.190509.1-.3l.6-1l.3-.7.4-.6c.199311-.355899.433818-.69091.7-1v-.2c1.405586-1.803895,3.135128-3.329962,5.1-4.5c4.003089-2.3147,8.762902-2.940771,13.228394-1.739966s8.269346,4.12971,10.571606,8.139966c.862003,1.46422,1.50229,3.048087,1.9,4.7-.009288.109491.026875.21798.1.3.018006.439433.085089.875475.2,1.3v.5c.077459.327436.111086.663709.1,1v1.6c.02128.336554-.012497.674325-.1,1v.6c-.115262.390368-.182425.79335-.2,1.2-.079537.117335-.114964.25904-.1.4-.39771,1.651913-1.037997,3.23578-1.9,4.7-.80108,1.527687-1.848447,2.912914-3.1,4.1Z" transform="translate(24.507027-14.08372)" fill="rgba(109,88,175,0.21)"/><path id="eGeRnNILjbt4" d="M937.6,299.9c-.000547-1.106784-.100954-2.211261-.3-3.3l5.4-3.1-5.1-8.8-5.4,3.1c-1.641652-1.495639-3.585532-2.621043-5.7-3.3v-6.3h-10.2v6.3c-.949454.277894-1.857496.681469-2.7,1.2l-.3.2h-.3c-.879843.485426-1.687635,1.09127-2.4,1.8l-5.4-3.1-5.1,8.8l5.4,3.1c-.2,1-.3,2-.4,3v.7c.07747.973553.211025,1.941827.4,2.9l-5.4,3.2l5.1,8.8l5.4-3.1c1.641652,1.495639,3.585532,2.621043,5.7,3.3v6.2h10.2v-6.3c1.050725-.305353,2.058695-.74214,3-1.3.979776-.551626,1.8868-1.223496,2.7-2l5.4,3.2l5.1-8.8-5.4-3.2c.193147-1.055874.29353-2.126625.3-3.2Zm-9.5,7.2h-.2c-.118321.184531-.293997.325072-.5.4l-.3.2-.4.4-.4.2-.4.2-.5.3h-.3l-.7.2h-.2c-.904861.286952-1.850987.422113-2.8.4-3.274847-.027276-6.324287-1.672322-8.145525-4.394171s-2.178564-6.168236-.954475-9.205829h.1l.3-.6c.027286-.149635.096663-.288391.2-.4c0-.1.1-.2.2-.3.097741-.221568.233069-.42456.4-.6c0-.026522.010536-.051957.029289-.070711s.044189-.029289.070711-.029289c.732807-1.033872,1.690038-1.888542,2.8-2.5c2.253642-1.3026,4.932922-1.655095,7.446792-.979727s4.655774,2.323107,5.953208,4.579727c.509033.799291.880827,1.678076,1.1,2.6v.2c.1.2.1.5.2.7v.9c.079537.117335.114964.25904.1.4.015564.172822-.019163.346458-.1.5v.9c-.079894.22935-.146669.463061-.2.7v0c-.200345.959123-.573047,1.873939-1.1,2.7-.424829.951538-.998704,1.829229-1.7,2.6Z" transform="translate(24.507027-14.08372)" fill="rgba(109,88,175,0.21)"/><path id="eGeRnNILjbt5" d="M973.3,220.4c-.503962-1.440208-1.175221-2.816288-2-4.1l5.4-6.8-11-8.9-5.5,6.8c-2.894148-1.127667-6.000734-1.605603-9.1-1.4l-3.1-8.1-13.2,5.1l3.1,8.1c-1.015985.916057-1.983943,1.884015-2.9,2.9l-.3.4-.3.4c-.882522,1.065956-1.622105,2.242565-2.2,3.5l-8.6-1.4-2.2,14l8.6,1.4c.238664,1.355231.572831,2.691895,1,4l.2.4.2.5c.492235,1.300834,1.129595,2.54201,1.9,3.7l-5.4,6.7l11,8.9l5.4-6.8c2.90217,1.097461,6.002162,1.574383,9.1,1.4l3.2,8.2l13.2-5.1-3.2-8.2c1.211134-.911692,2.288308-1.988866,3.2-3.2.96908-1.228732,1.838509-2.532876,2.6-3.9l8.6,1.3l2.2-14-8.7-1.3c-.186549-1.548937-.590524-3.063843-1.2-4.5Zm-8.8,14.1v.2c-.128188.319817-.296179.622201-.5.9l-.2.4-.4.6-.4.5-.4.5-.6.5-.3.4-.7.6c-.1.1-.2.1-.2.2-1.075739.788124-2.253062,1.427242-3.5,1.9-3.379899,1.334378-7.153236,1.260674-10.478449-.204674s-5.925726-4.200459-7.221551-7.595326c-.589398-1.670621-.893641-3.428469-.9-5.2v-.2c.087503-.325675.12128-.663446.1-1c.043195-.164542.076587-.331502.1-.5c0-.2.1-.4.1-.6s.1-.6.2-.9s0-.2.1-.2c.494818-1.704644,1.309286-3.299643,2.4-4.7c4.73419-5.859628,13.311099-6.797728,19.2-2.1c1.074278.788367,1.990278,1.772219,2.7,2.9l.2.2c.128188.319817.296179.622201.5.9l.2.4.3.7.3.6c.020027.212637.088439.417874.2.6.079894.22935.146669.463061.2.7v.4c.105201.324455.172318.660041.2,1v.3c.200126,1.325824.200126,2.674176,0,4-.20076,1.321176-.605589,2.603135-1.2,3.8Z" transform="translate(24.507027-14.08372)" fill="rgba(109,88,175,0.21)"/></g><g id="eGeRnNILjbt6"><rect width="71.4" height="71.42" rx="8.9" ry="8.9" transform="translate(129.957027 507.734955)" filter="url(#eGeRnNILjbt7-filter)" fill="url(#eGeRnNILjbt7-fill)"/><path d="M202.7,590.3c-11.041819,0-20.99639-6.651431-25.221911-16.852742s-1.889849-21.943528,5.917896-29.751273s19.549962-10.143418,29.751273-5.917896s16.852742,14.180092,16.852742,25.221911c-.054844,15.054598-12.245402,27.245156-27.3,27.3Zm0-49.6c-9.028498-.040487-17.190528,5.366989-20.673674,13.696641s-1.600016,17.937635,4.769798,24.336141s15.969236,8.324801,24.314459,4.879126s13.789326-11.583319,13.789417-20.611908c.000123-12.277003-9.92312-22.244946-22.2-22.3Z" transform="translate(-36.942973-19.565045)" fill="#fff"/><polygon points="87,425.9 77.5,417.5 81.5,412.9 86.5,417.3 96,406.4 100.6,410.4 87,425.9" transform="translate(76.657027 127.934955)" fill="#fff"/></g><g id="eGeRnNILjbt10"><rect width="340" height="178.9" rx="15.8" ry="15.8" transform="translate(166.057027 635.634955)" filter="url(#eGeRnNILjbt11-filter)" fill="#fff"/><rect width="36.1" height="4.29" rx="0" ry="0" transform="translate(203.357027 656.934955)" fill="#6562af"/><rect width="73.9" height="4.29" rx="0" ry="0" transform="translate(250.857027 656.934955)" fill="#6562af"/><rect width="36.1" height="4.29" rx="0" ry="0" transform="translate(218.657027 674.234955)" fill="#a5a5a5"/><rect width="211.1" height="4.29" rx="0" ry="0" transform="translate(266.257027 674.234955)" fill="#d3d3d3"/><rect width="36.1" height="4.29" rx="0" ry="0" transform="translate(218.657027 690.434955)" fill="#a5a5a5"/><rect width="211.1" height="4.29" rx="0" ry="0" transform="translate(266.257027 690.434955)" fill="#d3d3d3"/><rect width="36.1" height="4.29" rx="0" ry="0" transform="translate(218.657027 706.534955)" fill="#a5a5a5"/><rect width="211.1" height="4.29" rx="0" ry="0" transform="translate(266.257027 706.534955)" fill="#d3d3d3"/><rect width="36.1" height="4.29" rx="0" ry="0" transform="translate(218.657027 722.634955)" fill="#a5a5a5"/><rect width="36.1" height="4.29" rx="0" ry="0" transform="translate(203.357027 739.634955)" fill="#6562af"/><rect width="73.9" height="4.29" rx="0" ry="0" transform="translate(250.857027 739.634955)" fill="#6562af"/><rect width="136.2" height="4.29" rx="0" ry="0" transform="translate(266.257027 757.034955)" fill="#a5a5a5"/><rect width="136.2" height="4.29" rx="0" ry="0" transform="translate(266.257027 773.134955)" fill="#a5a5a5"/><rect width="12" height="4.29" rx="0" ry="0" transform="translate(242.757027 773.134955)" fill="#6562af"/><rect width="36.1" height="4.29" rx="0" ry="0" transform="translate(218.657027 789.234955)" fill="#6562af"/><rect width="136.2" height="4.29" rx="0" ry="0" transform="translate(266.257027 789.234955)" fill="#a5a5a5"/><rect width="66.7" height="4.29" rx="0" ry="0" transform="translate(412.157027 757.034955)" fill="#a5a5a5"/><rect width="66.7" height="4.29" rx="0" ry="0" transform="translate(412.157027 773.134955)" fill="#a5a5a5"/><rect width="66.7" height="4.29" rx="0" ry="0" transform="translate(412.157027 789.234955)" fill="#a5a5a5"/><rect width="211.1" height="4.29" rx="0" ry="0" transform="translate(266.257027 722.634955)" fill="#d3d3d3"/></g><g id="eGeRnNILjbt32" transform="translate(.000001 0)"><rect width="84.9" height="84.86" rx="8.9" ry="8.9" transform="translate(810.157027 625.534955)" filter="url(#eGeRnNILjbt33-filter)" fill="url(#eGeRnNILjbt33-fill)"/><path d="M909.1,687.5c.026035-1.311441-.108294-2.621148-.4-3.9l6.6-3.8-6.2-10.7-6.5,3.8c-2.004872-1.787555-4.352491-3.148493-6.9-4v-7.5h-12.3v7.5l-3.3,1.4-.4.3-.3.2c-1.029335.609108-2.000135,1.312101-2.9,2.1l-6.5-3.8-6.2,10.7l6.5,3.7c-.2,1.2-.3,2.4-.4,3.6v.9c.1,1.1.2,2.3.4,3.5l-6.5,3.8l6.2,10.6l6.5-3.7c2.000261,1.770605,4.35141,3.099515,6.9,3.9v7.6h12.3v-7.6c1.25246-.406471,2.459013-.942717,3.6-1.6c1.164631-.660291,2.240024-1.466835,3.2-2.4l6.6,3.8l6.2-10.6-6.6-3.8c.28654-1.313542.420759-2.655728.4-4Zm-11.5,8.6l-.2.2-.6.5-.4.3-.5.3-.5.3-.4.3-.7.3h-.3l-.8.3h-.2c-1.139462.320521-2.31637.48865-3.5.5-6.51696,0-11.8-5.28304-11.8-11.8-.010952-1.545769.295364-3.077348.9-4.5.006314-.077062.042139-.148711.1-.2l.3-.7.3-.5.2-.4.5-.7c.057861-.051289.093686-.122938.1-.2.977081-1.202032,2.162674-2.218254,3.5-3c5.634596-3.248704,12.835526-1.325475,16.1,4.3.604341,1.024711,1.043078,2.138427,1.3,3.3.006314.077062.042139.148711.1.2c0,.3.1.5.1.8s0,.3.1.4v2.4c-.06771.122306-.102189.26022-.1.4c0,.3-.1.6-.1.9s-.1.1-.1.2c-.565487,2.243418-1.742498,4.285879-3.4,5.9Z" transform="translate(-36.942973-19.565045)" fill="#fff"/></g><g id="eGeRnNILjbt35" transform="translate(.000001 0.000001)"><rect width="106.9" height="73.85" rx="8.9" ry="8.9" transform="translate(76.657027 689.934955)" filter="url(#eGeRnNILjbt36-filter)" fill="url(#eGeRnNILjbt36-fill)"/><polygon points="38,581.6 17.9,599 38,616.4 38,606.9 28.8,599 38,591 38,581.6" transform="translate(76.657027 127.934955)" fill="#fff"/><polygon points="68.9,616.4 89,599 68.9,581.6 68.9,591 78.1,599 68.9,606.9 68.9,616.4" transform="translate(76.657027 127.934955)" fill="#fff"/><polygon points="51.5,622.1 43,622.1 55.4,575.9 63.9,575.9 51.5,622.1" transform="translate(76.657027 127.934955)" fill="#fff"/></g><g id="eGeRnNILjbt40" transform="translate(-18.749976-1.235)"><rect width="74.3" height="74.27" rx="7.8" ry="7.8" transform="translate(266.257027 356.334955)" filter="url(#eGeRnNILjbt41-filter)" fill="url(#eGeRnNILjbt41-fill)"/><rect width="5.2" height="2.4" rx="0" ry="0" transform="translate(284.557027 376.134955)" fill="#fff"/><rect width="26.7" height="2.4" rx="0" ry="0" transform="translate(292.557027 376.134955)" fill="#fff"/><rect width="8.1" height="2.4" rx="0" ry="0" transform="translate(284.557027 384.134955)" fill="#fff"/><rect width="26.7" height="2.4" rx="0" ry="0" transform="translate(295.457027 384.134955)" fill="#fff"/><rect width="5.2" height="2.4" rx="0" ry="0" transform="translate(284.557027 399.334955)" fill="#fff"/><rect width="26.7" height="2.4" rx="0" ry="0" transform="translate(292.557027 399.334955)" fill="#fff"/><rect width="8.1" height="2.4" rx="0" ry="0" transform="translate(284.557027 407.334955)" fill="#fff"/><rect width="26.7" height="2.4" rx="0" ry="0" transform="translate(295.457027 407.334955)" fill="#fff"/><rect width="8.1" height="2.4" rx="0" ry="0" transform="translate(279.757027 392.234955)" fill="#fff"/><rect width="36.3" height="2.4" rx="0" ry="0" transform="translate(290.657027 392.234955)" fill="#fff"/></g><g id="eGeRnNILjbt52" transform="translate(.000001 0.000001)"><rect width="117.9" height="117.91" rx="8.9" ry="8.9" transform="translate(732.157027 127.934955)" filter="url(#eGeRnNILjbt53-filter)" fill="url(#eGeRnNILjbt53-fill)"/><path d="M857.3,184.7c-2.347225.013612-4.664877.524858-6.8,1.5-2.919725-10.206673-12.198165-17.282507-22.81361-17.397892s-20.045497,6.757095-23.18639,16.897892c-1.800988-.631385-3.691795-.969029-5.6-1-8.836556,0-16,7.163444-16,16h90.3c.000172-8.79765-7.102521-15.945015-15.9-16Z" transform="translate(-36.942973-19.565045)" fill="#fff"/><polygon points="697.8,80.1 714.4,96.7 731.1,80.1 719.9,80.1 719.9,60.5 709,60.5 709,80.1 697.8,80.1" transform="translate(76.657027 127.934955)" fill="#fff"/></g><script><![CDATA[(function(s,i,u,o,c,w,d,t,n,x,e,p){w[o]=w[o]||{};w[o][s]=w[o][s]||[];w[o][s].push(i);e=d.createElementNS(n,t);e.async=true;e.setAttributeNS(x,'href',[u,s,'.','j','s','?','v','=',c].join(''));e.setAttributeNS(null,'src',[u,s,'.','j','s'].join(''));p=d.getElementsByTagName(t)[0];p.parentNode.insertBefore(e,p);})('91c80d77',{"root":"eGeRnNILjbt1","animations":[{"elements":{"eGeRnNILjbt3":{"transform":{"data":{"o":{"x":890.407027,"y":230.86628,"type":"corner"},"t":{"x":-865.9,"y":-244.95}},"keys":{"r":[{"t":0,"v":0},{"t":4000,"v":360}]}}},"eGeRnNILjbt4":{"transform":{"data":{"o":{"x":945.907027,"y":285.76628,"type":"corner"},"t":{"x":-921.4,"y":-299.85}},"keys":{"r":[{"t":0,"v":0},{"t":4000,"v":360}]}}},"eGeRnNILjbt5":{"transform":{"data":{"o":{"x":976.807027,"y":214.51628,"type":"corner"},"t":{"x":-952.3,"y":-228.6}},"keys":{"r":[{"t":0,"v":0},{"t":4000,"v":360}]}}},"eGeRnNILjbt6":{"transform":{"data":{"t":{"x":-165.657028,"y":-543.444962}},"keys":{"o":[{"t":0,"v":{"x":165.657028,"y":543.444962,"type":"corner"}},{"t":2000,"v":{"x":213.05703,"y":543.444962,"type":"corner"}},{"t":4000,"v":{"x":165.657028,"y":543.444962,"type":"corner"}}],"s":[{"t":0,"v":{"x":1,"y":1}},{"t":2000,"v":{"x":0.764705,"y":0.764705}},{"t":4000,"v":{"x":1,"y":1}}]}}},"eGeRnNILjbt10":{"transform":{"data":{"t":{"x":-336.057022,"y":-725.08493}},"keys":{"o":[{"t":0,"v":{"x":336.057022,"y":725.08493,"type":"corner"}},{"t":2000,"v":{"x":383.13327,"y":725.084934,"type":"corner"}},{"t":4000,"v":{"x":336.057022,"y":725.08493,"type":"corner"}}],"r":[{"t":0,"v":0},{"t":2000,"v":5.086037},{"t":4000,"v":0}]}}},"eGeRnNILjbt32":{"transform":{"data":{"t":{"x":-852.607055,"y":-667.964966}},"keys":{"o":[{"t":0,"v":{"x":852.607056,"y":667.964966,"type":"corner"}},{"t":2000,"v":{"x":890.407026,"y":698.198084,"type":"corner"}},{"t":4000,"v":{"x":852.607056,"y":667.964966,"type":"corner"}}],"r":[{"t":0,"v":0},{"t":2000,"v":-50.097308},{"t":4000,"v":0}]}}},"eGeRnNILjbt35":{"transform":{"data":{"t":{"x":-130.107032,"y":-726.859924}},"keys":{"o":[{"t":0,"v":{"x":130.107033,"y":726.859925,"type":"cusp","end":{"x":130.107033,"y":726.859925}}},{"t":2000,"v":{"x":130.107033,"y":694.724954,"type":"cusp","start":{"x":130.107033,"y":696.499924},"end":{"x":130.107033,"y":697.458815}}},{"t":4000,"v":{"x":130.107033,"y":726.859925,"type":"cusp","start":{"x":130.026358,"y":724.453252}}}],"r":[{"t":0,"v":0},{"t":2000,"v":19},{"t":4000,"v":0}]}}},"eGeRnNILjbt40":{"transform":{"data":{"t":{"x":-303.407013,"y":-393.469955}},"keys":{"o":[{"t":0,"v":{"x":284.657037,"y":392.234955,"type":"cusp","end":{"x":284.657037,"y":381.879622}}},{"t":1000,"v":{"x":303.407027,"y":373.484965,"type":"cusp","start":{"x":293.051694,"y":373.484965},"end":{"x":313.76236,"y":373.484965}}},{"t":2000,"v":{"x":322.157017,"y":392.234955,"type":"cusp","start":{"x":322.157017,"y":381.879622},"end":{"x":322.157017,"y":402.590288}}},{"t":3000,"v":{"x":303.407027,"y":410.984945,"type":"cusp","start":{"x":313.76236,"y":410.984945},"end":{"x":293.051694,"y":410.984945}}},{"t":4000,"v":{"x":284.657037,"y":392.234955,"type":"cusp","start":{"x":284.657037,"y":402.590288}}}]}}},"eGeRnNILjbt52":{"transform":{"data":{"o":{"x":791.107056,"y":186.889954,"type":"corner"},"t":{"x":-791.107055,"y":-186.889953}},"keys":{"s":[{"t":0,"v":{"x":1,"y":1}},{"t":2000,"v":{"x":0.7,"y":0.7}},{"t":4000,"v":{"x":1,"y":1}}]}}}},"s":"MDCA1MzkyMzlDNK2I4Yzg5Nzg4OYjgwODY4NUITzOTUxNGJBNDIc0NzQ3NDNBMJzlEN2I4MDg5QN2M3YThiODAA4Njg1Mzk1MTNQ4NDMzOTgwORGI3Yzg5Nzg4EYjgwODY4NThAhMzk1MTQ3NDQNPMzk3ZDgwOFDM4MzM5NTE0IODQzMzk3ODgVzOGI3Y1g4OTKg1NzhJOGJNNX2MzOTUxN2Q3OODgzOGE3YzQEzMzk4YTg3N2OM3YzdiMzk1MYTQ4OTQ/"}],"options":"MDPAxZTlhNDE5MYjkzODA5MTkzIWTQxNTlVNDEL5MjgyOTFDOGMU4YjhiNDE0YHjQxOTI4MjkxPOGU4YjhiNDEI1OTUxNTRYOWYM/"},'https://cdn.svgator.com/ply/','__SVGATOR_PLAYER__','2021-10-11',window,document,'script','http://www.w3.org/2000/svg','http://www.w3.org/1999/xlink')]]></script></svg>